<svg width="0" height="0" class="hidden"><symbol fill="none" xmlns="http://www.w3.org/2000/svg" viewBox="0 0 100 29" id="logo_small"><path d="M31.127 21.928c-.937-1.506-2.864-2.26-5.783-2.26h-.92v9.294h.92c2.256 0 3.92-.514 4.995-1.543.905-.879 1.357-1.997 1.357-3.354-.002-.807-.192-1.519-.57-2.137ZM15.324 22.04c.938 1.507 2.865 2.26 5.781 2.26h.921v-9.294h-.92c-2.256 0-3.92.514-4.995 1.543-.902.878-1.354 1.996-1.354 3.353 0 .806.189 1.519.567 2.138ZM0 .162h12.252v2.462H4.398v1.23h6.525V6.19H4.398v1.245h7.854v2.462H0V.162ZM18.414.15h15.853l-7.926 9.944L18.414.15Zm7.927 8.714L32.89.668H19.816l6.525 8.196ZM40.6.162h12.252v2.461h-7.854v1.231h6.525V6.19h-6.526v1.245h7.855v2.461H40.599V.162ZM60.392 9.882V.15h.942l11.745 6.616V.15h.894v9.735l-13.581-.003ZM86.806 9.896V2.623H80.45V.162h13.582v2.461h-6.356v7.273h-.87ZM7.225 16.945c1.063 0 1.91.094 2.537.28.722.204 1.329.523 1.748.92.42.396.635.853.62 1.318.005.448-.213.887-.628 1.266-.42.388-1.013.704-1.715.916.872.178 1.636.499 2.199.923.584.42.9.944.894 1.483.006.47-.216.933-.64 1.335-.416.4-1.003.73-1.704.958-.372.116-.771.2-1.184.252-.435.056-1.015.084-1.74.084H.168v-9.735h7.057ZM35.56 25.974c-1.264-.639-1.889-1.597-1.873-2.875h3.94c-.017.532.257.938.821 1.217.564.28 1.354.42 2.369.42.837 0 1.498-.08 1.981-.238.484-.158.725-.4.725-.727 0-.27-.245-.466-.737-.588-.47-.117-.96-.204-1.462-.258-.483-.052-.781-.083-.894-.094a31.108 31.108 0 0 1-3.214-.512c-.877-.189-1.658-.502-2.272-.91-.612-.41-.918-.95-.918-1.622 0-.671.306-1.242.918-1.713.612-.471 1.43-.823 2.453-1.056a15.074 15.074 0 0 1 3.347-.35c1.466 0 2.735.159 3.806.476 1.072.317 1.914.797 2.526 1.44.284.272.473.574.556.888.063.276.095.554.096.833H43.79c0-.504-.233-.875-.7-1.112-.468-.238-1.193-.357-2.176-.357-.79 0-1.401.08-1.836.238-.435.158-.653.373-.653.643 0 .299.29.518.87.658.713.162 1.449.289 2.2.377 1.45.168 2.581.329 3.395.483.82.156 1.55.439 2.114.818.596.392.894.942.894 1.65 0 .672-.322 1.25-.966 1.735-.645.485-1.494.855-2.55 1.111a14.46 14.46 0 0 1-3.42.385c-2.335-.001-4.136-.322-5.4-.96ZM57.806 26.68v-7.273H51.45v-2.462h13.582v2.462h-6.356v7.273h-.87ZM69.6 16.945h12.252v2.462h-7.855v1.23h6.525v2.337h-6.525v1.244h7.855v2.462H69.599v-9.735ZM100 26.68H87.07v-9.735h6.55c1.402 0 2.545.145 3.432.434.846.267 1.549.663 2.03 1.147.485.49.735 1.044.725 1.608.011.709-.398 1.397-1.16 1.951-.73.557-1.759.958-2.925 1.14L100 26.68ZM87.965 17.8v5.02h6.21l-6.21-5.02Zm0 8.364h10.343l-3.528-2.84-.75.014h-6.065v2.826Zm.628-8.7 6.574 5.315c1.055-.122 2.004-.454 2.682-.937.698-.476 1.075-1.082 1.063-1.707.01-.492-.216-.976-.652-1.398-.435-.42-1.074-.755-1.837-.965-.709-.205-1.635-.308-2.779-.308h-5.05Z" fill="#fff"/></symbol><symbol fill="none" xmlns="http://www.w3.org/2000/svg" viewBox="0 0 12 12" id="search"><path d="M1.509 1.509A5.118 5.118 0 0 1 5.152 0c1.376 0 2.67.536 3.643 1.509a5.118 5.118 0 0 1 1.51 3.643 5.114 5.114 0 0 1-1.27 3.386l2.862 2.861a.352.352 0 0 1-.498.498L8.538 9.036a5.114 5.114 0 0 1-3.386 1.268A5.118 5.118 0 0 1 1.51 8.795 5.118 5.118 0 0 1 0 5.152c0-1.376.536-2.67 1.509-3.643Zm.498 6.789a4.453 4.453 0 0 0 6.29 0 4.453 4.453 0 0 0 0-6.291A4.434 4.434 0 0 0 5.152.706a4.435 4.435 0 0 0-3.145 1.3 4.453 4.453 0 0 0 0 6.292Z" fill="#939393"/></symbol><symbol fill="none" xmlns="http://www.w3.org/2000/svg" viewBox="0 0 13 8" id="dropdown"><path d="M6.5 8 .005.5h12.99L6.5 8Z" fill="#939393"/></symbol><symbol fill="none" xmlns="http://www.w3.org/2000/svg" viewBox="0 0 8 10" id="location"><path d="M3.773 0C1.693 0 0 1.56 0 3.476 0 5.885 3.777 10 3.777 10s3.77-4.234 3.77-6.524C7.547 1.559 5.854 0 3.773 0Zm1.139 4.494c-.314.289-.726.433-1.139.433-.412 0-.824-.144-1.138-.433a1.403 1.403 0 0 1 0-2.098c.304-.28.708-.434 1.138-.434.43 0 .835.154 1.139.434.628.579.628 1.52 0 2.098Z" fill="#fff"/></symbol><symbol fill="none" xmlns="http://www.w3.org/2000/svg" viewBox="0 0 29 21" id="bar_code"><path d="M3.222.833H0v19.334h3.222V.833ZM11.327.833H8.104v19.334h3.223V.833ZM16.209.833h-3.222v19.334h3.222V.833ZM29 .833h-4.785v19.334H29V.833ZM6.444.833H4.882v19.334h1.562V.833ZM19.333.833h-1.562v19.334h1.562V.833ZM22.555.833h-1.562v19.334h1.563V.833Z" fill="#0E0E0E"/></symbol><symbol xmlns="http://www.w3.org/2000/svg" viewBox="0 0 137 71" id="logo"><path d="M42.42 53.048c-1.277-3.655-3.903-5.483-7.88-5.484h-1.255v22.55h1.255c3.074 0 5.342-1.25 6.806-3.746 1.233-2.13 1.85-4.842 1.85-8.135-.003-1.958-.262-3.686-.776-5.184ZM20.884 53.319c1.278 3.655 3.904 5.483 7.879 5.483h1.255V36.253h-1.255c-3.074 0-5.343 1.248-6.807 3.745-1.23 2.13-1.844 4.842-1.845 8.135 0 1.956.258 3.684.773 5.186ZM0 .24h16.698v5.973H5.994v2.986h8.892v5.666H5.994v3.02h10.704v5.972H0V.24ZM25.095.212H46.7L35.898 24.338 25.095.212Zm10.803 21.14 8.925-19.884H27.005l8.893 19.884ZM55.329.24h16.698v5.973H61.323v2.986h8.892v5.666h-8.892v3.02h10.704v5.972H55.329V.24ZM82.302 23.823V.213h1.285l16.006 16.05V.212h1.218v23.616l-18.509-.006ZM118.3 23.857V6.213h-8.662V.24h18.509v5.973h-8.662v17.644H118.3ZM9.846 40.96c1.45 0 2.602.226 3.458.678a5.815 5.815 0 0 1 2.382 2.23 6.06 6.06 0 0 1 .846 3.2 5.8 5.8 0 0 1-.856 3.07 6.156 6.156 0 0 1-2.339 2.223 6.521 6.521 0 0 1 2.997 2.24 5.78 5.78 0 0 1 1.219 3.596 6.261 6.261 0 0 1-.873 3.24 6.444 6.444 0 0 1-2.322 2.325c-.507.28-1.05.487-1.614.61-.592.137-1.383.204-2.37.204H.228V40.96h9.617ZM48.462 62.863c-1.724-1.55-2.574-3.874-2.552-6.973h5.368c-.022 1.29.351 2.273 1.12 2.952.768.679 1.844 1.018 3.227 1.018 1.142 0 2.042-.192 2.701-.577.659-.385.988-.973.988-1.764 0-.657-.335-1.131-1.005-1.426a9.199 9.199 0 0 0-1.992-.627c-.659-.125-1.065-.2-1.219-.227a25.802 25.802 0 0 1-4.38-1.244 7.635 7.635 0 0 1-3.096-2.205c-.834-.996-1.251-2.308-1.251-3.937 0-1.628.417-3.014 1.251-4.156.835-1.143 1.949-1.997 3.343-2.562a12.023 12.023 0 0 1 4.562-.849c1.998 0 3.727.385 5.187 1.154 1.46.77 2.607 1.934 3.441 3.495.388.66.645 1.392.758 2.155.086.67.13 1.344.132 2.019h-5.369c0-1.222-.318-2.12-.955-2.698-.636-.577-1.625-.865-2.964-.865-1.076 0-1.91.192-2.503.577-.593.385-.89.905-.89 1.56 0 .725.396 1.256 1.187 1.596a17.41 17.41 0 0 0 2.996.916c1.977.407 3.519.797 4.628 1.17a6.47 6.47 0 0 1 2.882 1.985c.812.95 1.218 2.285 1.218 4.005 0 1.628-.439 3.03-1.317 4.207-.878 1.177-2.037 2.076-3.475 2.698a11.61 11.61 0 0 1-4.66.933c-3.184-.004-5.637-.78-7.36-2.33ZM78.778 64.576V46.932h-8.662v-5.973h18.51v5.973h-8.662v17.644h-1.186ZM94.85 40.96h16.698v5.972h-10.704v2.986h8.893v5.666h-8.893v3.02h10.704v5.972H94.85V40.96ZM136.281 64.576h-17.62V40.96h8.925c1.91 0 3.469.35 4.677 1.051a7.214 7.214 0 0 1 2.766 2.783 7.838 7.838 0 0 1 .988 3.902 7.63 7.63 0 0 1-1.581 4.734 7.435 7.435 0 0 1-3.985 2.765l5.83 8.381ZM119.879 43.03v12.182h8.465l-8.465-12.182Zm0 20.292h14.096l-4.808-6.888-1.021.034h-8.267v6.854Zm.857-21.106 8.958 12.894a6.274 6.274 0 0 0 3.656-2.273 6.416 6.416 0 0 0 1.449-4.14 6.628 6.628 0 0 0-.889-3.393 5.915 5.915 0 0 0-2.503-2.341c-.967-.498-2.229-.747-3.788-.747h-6.883Z" fill="#fff"/></symbol><symbol fill="none" xmlns="http://www.w3.org/2000/svg" viewBox="0 0 25 25" id="close"><path d="M1.286 25a1.286 1.286 0 0 1-.909-2.196L22.804.377a1.286 1.286 0 1 1 1.82 1.819L2.195 24.623a1.29 1.29 0 0 1-.91.377Z" fill="#4C00FE"/><path d="M23.715 25c-.33 0-.659-.125-.91-.377L.378 2.196A1.286 1.286 0 0 1 2.196.376l22.427 22.428A1.286 1.286 0 0 1 23.715 25Z" fill="#4C00FE"/></symbol><symbol id="github" xmlns="http://www.w3.org/2000/svg" xmlns:xlink="http://www.w3.org/1999/xlink" xml:space="preserve" viewBox="0 0 512 499.4"><path d="M256 0C114.6 0 0 114.6 0 256c0 113.1 73.3 209 175.1 242.9 12.8 2.3 17.5-5.6 17.5-12.3 0-6.1-.2-22.2-.3-43.5-71.3 15.4-86.3-34.4-86.3-34.4-11.6-29.6-28.4-37.4-28.4-37.4-23.2-15.9 1.8-15.6 1.8-15.6 25.7 1.8 39.2 26.4 39.2 26.4 22.8 39.1 59.9 27.8 74.5 21.3 2.3-16.5 8.9-27.8 16.3-34.2-56.8-6.5-116.6-28.4-116.6-126.5 0-27.9 10-50.8 26.4-68.7-2.6-6.5-11.4-32.5 2.5-67.7 0 0 21.5-6.9 70.4 26.2 20.4-5.7 42.3-8.5 64.1-8.6 21.7.1 43.6 2.9 64.1 8.6 48.9-33.1 70.3-26.2 70.3-26.2 14 35.2 5.2 61.3 2.5 67.7 16.4 17.9 26.3 40.7 26.3 68.7 0 98.3-59.9 120-116.9 126.3 9.2 7.9 17.4 23.5 17.4 47.4 0 34.2-.3 61.8-.3 70.2 0 6.8 4.6 14.8 17.6 12.3C438.7 465 512 369.1 512 256 512 114.6 397.4 0 256 0z"/></symbol></svg>