<svg width="137" height="71" viewBox="0 0 137 71" fill="none" xmlns="http://www.w3.org/2000/svg">
<path d="M42.4197 53.0485C41.1433 49.3929 38.5166 47.5647 34.5396 47.5639H33.2848V70.1132H34.5396C37.6135 70.1132 39.8823 68.8649 41.3461 66.3682C42.5793 64.2372 43.1959 61.5256 43.1959 58.2334C43.1929 56.2751 42.9342 54.5468 42.4197 53.0485Z" fill="white"/>
<path d="M20.8838 53.3189C22.1617 56.9745 24.788 58.8023 28.7629 58.8023H30.0177V36.2531H28.7629C25.689 36.2531 23.4201 37.5014 21.9564 39.9981C20.7268 42.1283 20.1117 44.8399 20.111 48.1328C20.111 50.0889 20.3686 51.8175 20.8838 53.3189Z" fill="white"/>
<path d="M0 0.240417H16.6978V6.21254H5.99408V9.1986H14.8864V14.8653H5.99408V17.8853H16.6978V23.8574H0V0.240417Z" fill="white"/>
<path d="M25.0951 0.212097H46.7001L35.8976 24.3381L25.0951 0.212097ZM35.8976 21.3521L44.8228 1.4676H27.0053L35.8976 21.3521Z" fill="white"/>
<path d="M55.3289 0.240417H72.0267V6.21254H61.323V9.1986H70.2153V14.8653H61.323V17.8853H72.0267V23.8574H55.3289V0.240417Z" fill="white"/>
<path d="M82.3023 23.8235V0.212097H83.5867L99.5929 16.2622V0.212097H100.811V23.8291L82.3023 23.8235Z" fill="white"/>
<path d="M118.3 23.8574V6.21254H109.638V0.240417H128.147V6.21254H119.485V23.8574H118.3Z" fill="white"/>
<path d="M9.8463 40.9595C11.2954 40.9595 12.4481 41.1857 13.3044 41.6381C14.2883 42.1326 15.1146 42.9062 15.6864 43.868C16.2581 44.8297 16.5515 45.9397 16.532 47.0673C16.538 48.1543 16.2408 49.2202 15.6757 50.1382C15.1015 51.0797 14.2944 51.8468 13.3374 52.3608C14.5257 52.7926 15.5669 53.5706 16.3344 54.6003C17.131 55.6186 17.5615 56.8893 17.553 58.1972C17.5614 59.3401 17.2591 60.4627 16.6802 61.4377C16.1141 62.4061 15.3141 63.2069 14.3583 63.7621C13.8509 64.0428 13.3077 64.2485 12.7445 64.3729C12.1517 64.5086 11.3613 64.5765 10.3733 64.5765H0.229431V40.9595H9.8463Z" fill="white"/>
<path d="M48.4621 62.8629C46.7385 61.3134 45.8877 58.989 45.9097 55.8898H51.278C51.2561 57.1792 51.6293 58.1633 52.3978 58.8419C53.1662 59.5206 54.2421 59.8599 55.6254 59.8599C56.7671 59.8599 57.6673 59.6676 58.326 59.2831C58.9847 58.8985 59.314 58.3103 59.314 57.5186C59.314 56.8625 58.9792 56.3875 58.3095 56.0934C57.67 55.8088 57.0017 55.5982 56.317 55.4657C55.6583 55.3412 55.2521 55.2658 55.0984 55.2394C53.6063 54.9551 52.1408 54.5388 50.7181 53.9952C49.5237 53.5377 48.4594 52.7794 47.6223 51.7896C46.7879 50.7943 46.3708 49.4822 46.3708 47.8534C46.3708 46.2247 46.7879 44.8391 47.6223 43.6967C48.4566 42.5543 49.5709 41.7004 50.9651 41.1348C52.42 40.5578 53.9677 40.27 55.5266 40.2865C57.5246 40.2865 59.2536 40.6711 60.7137 41.4402C62.1738 42.2093 63.321 43.3744 64.1554 44.9353C64.5426 45.5954 64.7999 46.3275 64.9129 47.09C64.9994 47.7593 65.0434 48.4337 65.0446 49.109H59.6763C59.6763 47.8874 59.3579 46.9882 58.7212 46.4113C58.0845 45.8345 57.0964 45.546 55.7571 45.546C54.6812 45.546 53.8469 45.7383 53.2541 46.1229C52.6613 46.5075 52.3648 47.0278 52.3648 47.6838C52.3648 48.4077 52.7601 48.9393 53.5505 49.2786C54.5215 49.674 55.5244 49.9805 56.5475 50.1948C58.5236 50.602 60.066 50.9922 61.1748 51.3655C62.2926 51.7451 63.2889 52.4314 64.0566 53.3505C64.869 54.3006 65.2752 55.6353 65.2752 57.3546C65.2752 58.9833 64.836 60.3859 63.9578 61.5622C63.0795 62.7385 61.9213 63.6377 60.4832 64.2598C59.0063 64.8898 57.4214 65.2071 55.823 65.193C52.6393 65.1892 50.1857 64.4125 48.4621 62.8629Z" fill="white"/>
<path d="M78.7783 64.5765V46.9316H70.1165V40.9595H88.6257V46.9316H79.964V64.5765H78.7783Z" fill="white"/>
<path d="M94.8503 40.9595H111.548V46.9316H100.844V49.9176H109.737V55.5844H100.844V58.6044H111.548V64.5765H94.8503V40.9595Z" fill="white"/>
<path d="M136.281 64.5765H118.661V40.9595H127.586C129.496 40.9595 131.055 41.3101 132.263 42.0114C133.417 42.658 134.374 43.621 135.029 44.7938C135.691 45.9805 136.032 47.3278 136.017 48.6961C136.033 50.414 135.475 52.0853 134.436 53.4297C133.441 54.7801 132.04 55.7526 130.451 56.1952L136.281 64.5765ZM119.879 43.0294V55.2111H128.344L119.879 43.0294ZM119.879 63.321H133.975L129.167 56.4327L128.146 56.4666H119.879V63.321ZM120.736 42.215L129.694 55.1093C131.132 54.813 132.425 54.009 133.35 52.8358C134.3 51.6806 134.815 50.2107 134.799 48.6961C134.812 47.5021 134.504 46.3277 133.91 45.3028C133.317 44.2853 132.447 43.4708 131.407 42.9615C130.44 42.4638 129.178 42.215 127.619 42.215H120.736Z" fill="white"/>
</svg>
