<svg width="229" height="193" viewBox="0 0 229 193" fill="none" xmlns="http://www.w3.org/2000/svg">
<g filter="url(#filter0_b_5_2243)">
<path d="M5.94213e-05 193C30.0728 193 59.851 188.008 87.6346 178.309C115.418 168.61 140.663 154.393 161.928 136.472C183.192 118.55 200.06 97.2737 211.568 73.8579C223.077 50.4421 229 25.3451 229 -1.52588e-05L6.78576e-05 5.24888e-06L5.94213e-05 193Z" fill="url(#paint0_linear_5_2243)" fill-opacity="0.03"/>
<path d="M5.94213e-05 193C30.0728 193 59.851 188.008 87.6346 178.309C115.418 168.61 140.663 154.393 161.928 136.472C183.192 118.55 200.06 97.2737 211.568 73.8579C223.077 50.4421 229 25.3451 229 -1.52588e-05L6.78576e-05 5.24888e-06L5.94213e-05 193Z" fill="black" fill-opacity="0.2"/>
</g>
<path d="M58.4197 94.0485C57.1433 90.3929 54.5166 88.5647 50.5396 88.5639H49.2848V111.113H50.5396C53.6135 111.113 55.8823 109.865 57.3461 107.368C58.5793 105.237 59.1959 102.526 59.1959 99.2334C59.1929 97.2751 58.9342 95.5468 58.4197 94.0485Z" fill="white"/>
<path d="M36.8838 94.3189C38.1617 97.9745 40.788 99.8023 44.7629 99.8023H46.0177V77.2531H44.7629C41.689 77.2531 39.4201 78.5014 37.9564 80.9981C36.7268 83.1283 36.1117 85.8399 36.111 89.1328C36.111 91.0889 36.3686 92.8175 36.8838 94.3189Z" fill="white"/>
<path d="M16 41.2404H32.6978V47.2125H21.9941V50.1986H30.8864V55.8653H21.9941V58.8853H32.6978V64.8574H16V41.2404Z" fill="white"/>
<path d="M41.0951 41.2121H62.7001L51.8976 65.3381L41.0951 41.2121ZM51.8976 62.3521L60.8228 42.4676H43.0053L51.8976 62.3521Z" fill="white"/>
<path d="M71.3289 41.2404H88.0267V47.2125H77.323V50.1986H86.2153V55.8653H77.323V58.8853H88.0267V64.8574H71.3289V41.2404Z" fill="white"/>
<path d="M98.3023 64.8235V41.2121H99.5867L115.593 57.2622V41.2121H116.811V64.8291L98.3023 64.8235Z" fill="white"/>
<path d="M134.3 64.8574V47.2125H125.638V41.2404H144.147V47.2125H135.485V64.8574H134.3Z" fill="white"/>
<path d="M25.8463 81.9595C27.2954 81.9595 28.4481 82.1857 29.3044 82.6381C30.2883 83.1326 31.1146 83.9062 31.6864 84.868C32.2581 85.8297 32.5515 86.9397 32.532 88.0673C32.538 89.1543 32.2408 90.2202 31.6757 91.1382C31.1015 92.0797 30.2944 92.8468 29.3374 93.3608C30.5257 93.7926 31.5669 94.5706 32.3344 95.6003C33.131 96.6186 33.5615 97.8893 33.553 99.1972C33.5614 100.34 33.2591 101.463 32.6802 102.438C32.1141 103.406 31.3141 104.207 30.3583 104.762C29.8509 105.043 29.3077 105.248 28.7445 105.373C28.1517 105.509 27.3613 105.576 26.3733 105.576H16.2294V81.9595H25.8463Z" fill="white"/>
<path d="M64.4621 103.863C62.7385 102.313 61.8877 99.989 61.9097 96.8898H67.278C67.2561 98.1792 67.6293 99.1633 68.3978 99.8419C69.1662 100.521 70.2421 100.86 71.6254 100.86C72.7671 100.86 73.6673 100.668 74.326 100.283C74.9847 99.8985 75.314 99.3103 75.314 98.5186C75.314 97.8625 74.9792 97.3875 74.3095 97.0934C73.67 96.8088 73.0017 96.5982 72.317 96.4657C71.6583 96.3412 71.2521 96.2658 71.0984 96.2394C69.6063 95.9551 68.1408 95.5388 66.7181 94.9952C65.5237 94.5377 64.4594 93.7794 63.6223 92.7896C62.7879 91.7943 62.3708 90.4822 62.3708 88.8534C62.3708 87.2247 62.7879 85.8391 63.6223 84.6967C64.4566 83.5543 65.5709 82.7004 66.9651 82.1348C68.42 81.5578 69.9677 81.27 71.5266 81.2865C73.5246 81.2865 75.2536 81.6711 76.7137 82.4402C78.1738 83.2093 79.321 84.3744 80.1554 85.9353C80.5426 86.5954 80.7999 87.3275 80.9129 88.09C80.9994 88.7593 81.0434 89.4337 81.0446 90.109H75.6763C75.6763 88.8874 75.3579 87.9882 74.7212 87.4113C74.0845 86.8345 73.0964 86.546 71.7571 86.546C70.6812 86.546 69.8469 86.7383 69.2541 87.1229C68.6613 87.5075 68.3648 88.0278 68.3648 88.6838C68.3648 89.4077 68.7601 89.9393 69.5505 90.2786C70.5215 90.674 71.5244 90.9805 72.5475 91.1948C74.5236 91.602 76.066 91.9922 77.1748 92.3655C78.2926 92.7451 79.2889 93.4314 80.0566 94.3505C80.869 95.3006 81.2752 96.6353 81.2752 98.3546C81.2752 99.9833 80.836 101.386 79.9578 102.562C79.0795 103.739 77.9213 104.638 76.4832 105.26C75.0063 105.89 73.4214 106.207 71.823 106.193C68.6393 106.189 66.1857 105.413 64.4621 103.863Z" fill="white"/>
<path d="M94.7783 105.576V87.9316H86.1165V81.9595H104.626V87.9316H95.964V105.576H94.7783Z" fill="white"/>
<path d="M110.85 81.9595H127.548V87.9316H116.844V90.9176H125.737V96.5844H116.844V99.6044H127.548V105.576H110.85V81.9595Z" fill="white"/>
<path d="M152.281 105.576H134.661V81.9595H143.586C145.496 81.9595 147.055 82.3101 148.263 83.0114C149.417 83.658 150.374 84.621 151.029 85.7938C151.691 86.9805 152.032 88.3278 152.017 89.6961C152.033 91.414 151.475 93.0853 150.436 94.4297C149.441 95.7801 148.04 96.7526 146.451 97.1952L152.281 105.576ZM135.879 84.0294V96.2111H144.344L135.879 84.0294ZM135.879 104.321H149.975L145.167 97.4327L144.146 97.4666H135.879V104.321ZM136.736 83.215L145.694 96.1093C147.132 95.813 148.425 95.009 149.35 93.8358C150.3 92.6806 150.815 91.2107 150.799 89.6961C150.812 88.5021 150.504 87.3277 149.91 86.3028C149.317 85.2853 148.447 84.4708 147.407 83.9615C146.44 83.4638 145.178 83.215 143.619 83.215H136.736Z" fill="white"/>
<defs>
<filter id="filter0_b_5_2243" x="-29.9999" y="-30" width="289" height="253" filterUnits="userSpaceOnUse" color-interpolation-filters="sRGB">
<feFlood flood-opacity="0" result="BackgroundImageFix"/>
<feGaussianBlur in="BackgroundImage" stdDeviation="15"/>
<feComposite in2="SourceAlpha" operator="in" result="effect1_backgroundBlur_5_2243"/>
<feBlend mode="normal" in="SourceGraphic" in2="effect1_backgroundBlur_5_2243" result="shape"/>
</filter>
<linearGradient id="paint0_linear_5_2243" x1="269.924" y1="-72.6502" x2="-48.139" y2="290.923" gradientUnits="userSpaceOnUse">
<stop stop-color="#C4C4C4"/>
<stop offset="1" stop-color="#C4C4C4" stop-opacity="0"/>
</linearGradient>
</defs>
</svg>
