<svg width="0" height="0" class="hidden">
  <symbol fill="none" xmlns="http://www.w3.org/2000/svg" viewBox="0 0 100 29" id="logo_small">
    <path d="M31.1266 21.9284C30.19 20.4216 28.2626 19.668 25.3443 19.6677H24.4236V28.9622H25.3443C27.5999 28.9622 29.2647 28.4476 30.3388 27.4186C31.2437 26.5402 31.6961 25.4225 31.6961 24.0655C31.694 23.2584 31.5041 22.546 31.1266 21.9284Z" fill="white"></path>
    <path d="M15.3241 22.0398C16.2617 23.5466 18.1889 24.3 21.1055 24.3H22.0263V15.0056H21.1055C18.85 15.0056 17.1852 15.5201 16.1111 16.5492C15.2089 17.4272 14.7575 18.5449 14.757 19.9022C14.757 20.7085 14.946 21.421 15.3241 22.0398Z" fill="white"></path>
    <path d="M0 0.16217H12.2525V2.62379H4.39833V3.8546H10.9233V6.19034H4.39833V7.43513H12.2525V9.89675H0V0.16217Z" fill="white"></path>
    <path d="M18.4142 0.150024H34.2675L26.3408 10.0944L18.4142 0.150024ZM26.3408 8.8636L32.89 0.667523H19.8158L26.3408 8.8636Z" fill="white"></path>
    <path d="M40.5991 0.161682H52.8516V2.6233H44.9975V3.85411H51.5225V6.18985H44.9975V7.43465H52.8516V9.89627H40.5991V0.161682Z" fill="white"></path>
    <path d="M60.3915 9.88228V0.150024H61.334L73.079 6.76563V0.150024H73.9731V9.88461L60.3915 9.88228Z" fill="white"></path>
    <path d="M86.8058 9.89627V2.6233H80.45V0.161682H94.0316V2.6233H87.6758V9.89627H86.8058Z" fill="white"></path>
    <path d="M7.225 16.9455C8.28833 16.9455 9.13416 17.0387 9.7625 17.2252C10.4844 17.429 11.0908 17.7479 11.5103 18.1443C11.9299 18.5408 12.1451 18.9983 12.1308 19.4631C12.1352 19.9111 11.9171 20.3505 11.5025 20.7288C11.0811 21.1169 10.4889 21.4331 9.78666 21.645C10.6587 21.8229 11.4227 22.1436 11.9858 22.5681C12.5703 22.9878 12.8862 23.5115 12.88 24.0506C12.8862 24.5217 12.6643 24.9844 12.2396 25.3863C11.8241 25.7855 11.2372 26.1156 10.5358 26.3444C10.1635 26.4601 9.76487 26.5449 9.35166 26.5962C8.91666 26.6521 8.33666 26.6801 7.61166 26.6801H0.168335V16.9455H7.225Z" fill="white"></path>
    <path d="M35.5604 25.9737C34.2956 25.335 33.6713 24.3769 33.6874 23.0995H37.6266C37.6105 23.631 37.8844 24.0366 38.4483 24.3163C39.0122 24.5961 39.8016 24.7359 40.8166 24.7359C41.6544 24.7359 42.3149 24.6567 42.7983 24.4982C43.2816 24.3396 43.5233 24.0972 43.5233 23.7709C43.5233 23.5005 43.2776 23.3046 42.7862 23.1834C42.3169 23.0661 41.8265 22.9793 41.3241 22.9247C40.8408 22.8734 40.5427 22.8423 40.4299 22.8314C39.3351 22.7142 38.2597 22.5427 37.2158 22.3186C36.3393 22.13 35.5584 21.8175 34.9441 21.4095C34.3319 20.9992 34.0258 20.4584 34.0258 19.787C34.0258 19.1157 34.3319 18.5446 34.9441 18.0737C35.5563 17.6028 36.374 17.2508 37.397 17.0177C38.4646 16.7799 39.6003 16.6613 40.7441 16.6681C42.2102 16.6681 43.479 16.8266 44.5503 17.1436C45.6217 17.4606 46.4635 17.9408 47.0758 18.5842C47.3599 18.8563 47.5487 19.1581 47.6316 19.4724C47.6951 19.7482 47.7273 20.0262 47.7283 20.3046H43.7891C43.7891 19.801 43.5555 19.4304 43.0883 19.1926C42.621 18.9549 41.896 18.836 40.9133 18.836C40.1238 18.836 39.5116 18.9152 39.0766 19.0737C38.6416 19.2323 38.4241 19.4467 38.4241 19.7171C38.4241 20.0155 38.7141 20.2346 39.2941 20.3745C40.0066 20.5374 40.7425 20.6638 41.4933 20.7521C42.9433 20.92 44.0751 21.0808 44.8887 21.2346C45.7089 21.3911 46.4399 21.674 47.0033 22.0529C47.5994 22.4445 47.8974 22.9946 47.8974 23.7033C47.8974 24.3746 47.5752 24.9527 46.9308 25.4376C46.2863 25.9225 45.4365 26.2931 44.3812 26.5495C43.2974 26.8092 42.1345 26.94 40.9616 26.9341C38.6255 26.9326 36.8251 26.6125 35.5604 25.9737Z" fill="white"></path>
    <path d="M57.8058 26.6801V19.4071H51.45V16.9455H65.0316V19.4071H58.6758V26.6801H57.8058Z" fill="white"></path>
    <path d="M69.5991 16.9455H81.8516V19.4071H73.9975V20.6379H80.5224V22.9737H73.9975V24.2185H81.8516V26.6801H69.5991V16.9455Z" fill="white"></path>
    <path d="M100 26.6801H87.0708V16.9455H93.62C95.0216 16.9455 96.1655 17.09 97.0516 17.3791C97.8983 17.6456 98.6009 18.0425 99.0816 18.526C99.5669 19.0151 99.8173 19.5704 99.8066 20.1344C99.8181 20.8425 99.4085 21.5314 98.6466 22.0855C97.9165 22.6421 96.8881 23.043 95.7225 23.2254L100 26.6801ZM87.965 17.7987V22.8198H94.1758L87.965 17.7987ZM87.965 26.1626H98.3083L94.78 23.3233L94.0308 23.3373H87.965V26.1626ZM88.5933 17.463L95.1666 22.7779C96.222 22.6557 97.1707 22.3243 97.8491 21.8408C98.5468 21.3646 98.9244 20.7587 98.9125 20.1344C98.9222 19.6423 98.6963 19.1582 98.26 18.7358C97.8254 18.3164 97.1865 17.9806 96.4233 17.7707C95.7144 17.5656 94.788 17.463 93.6441 17.463H88.5933Z" fill="white"></path>
  </symbol>
  <symbol fill="none" xmlns="http://www.w3.org/2000/svg" viewBox="0 0 12 12" id="search">
    <path d="M1.50899 1.50905C2.48211 0.535922 3.77593 0 5.15211 0C6.52829 0 7.82211 0.535922 8.79521 1.50905C9.76831 2.48215 10.3043 3.77597 10.3043 5.15213C10.3043 6.41032 9.85604 7.59949 9.03554 8.53786L11.8969 11.3992C12.0343 11.5366 12.0343 11.7595 11.8969 11.8969C11.8281 11.9656 11.7381 12 11.648 12C11.558 12 11.4679 11.9656 11.3992 11.8969L8.53785 9.03558C7.59948 9.85606 6.41031 10.3043 5.15211 10.3043C3.77591 10.3043 2.48213 9.76838 1.50901 8.79525C0.535907 7.82215 -1.43051e-05 6.52833 -1.43051e-05 5.15215C-1.43051e-05 3.77597 0.535884 2.48215 1.50899 1.50905ZM2.0067 8.29755C3.7411 10.0319 6.5631 10.0319 8.29749 8.29755C10.0319 6.56318 10.0319 3.74114 8.29749 2.00677C7.43021 1.13948 6.29134 0.705984 5.15209 0.705984C4.01312 0.705984 2.87377 1.1397 2.00668 2.00677C0.272352 3.74112 0.272352 6.56316 2.0067 8.29755Z" fill="#939393"></path>
  </symbol>
  <symbol fill="none" xmlns="http://www.w3.org/2000/svg" viewBox="0 0 13 8" id="dropdown">
    <path d="M6.5 8L0.00480968 0.5L12.9952 0.499999L6.5 8Z" fill="#939393"></path>
  </symbol>
  <symbol fill="none" xmlns="http://www.w3.org/2000/svg" viewBox="0 0 8 10" id="location">
    <path d="M3.77344 0C1.69278 0 0 1.55933 0 3.47595C0 5.88495 3.77715 10 3.77715 10C3.77715 10 7.54687 5.76648 7.54687 3.47595C7.54687 1.55933 5.85416 0 3.77344 0ZM4.91196 4.49371C4.59803 4.78284 4.18577 4.92743 3.77344 4.92743C3.36118 4.92743 2.94878 4.78284 2.63498 4.49371C2.00718 3.91547 2.00718 2.97455 2.63498 2.39624C2.93897 2.11609 3.34335 1.96179 3.77344 1.96179C4.20352 1.96179 4.60783 2.11615 4.91196 2.39624C5.53976 2.97455 5.53976 3.91547 4.91196 4.49371Z" fill="white"></path>
  </symbol>
  <symbol fill="none" xmlns="http://www.w3.org/2000/svg" viewBox="0 0 29 21" id="bar_code">
    <path d="M3.22222 0.833496L0 0.833496L0 20.1668H3.22222L3.22222 0.833496Z" fill="#0E0E0E"></path>
    <path d="M11.3266 0.833496L8.10439 0.833496L8.10439 20.1668H11.3266L11.3266 0.833496Z" fill="#0E0E0E"></path>
    <path d="M16.2088 0.833496L12.9866 0.833496L12.9866 20.1668H16.2088L16.2088 0.833496Z" fill="#0E0E0E"></path>
    <path d="M28.9999 0.833496L24.2154 0.833496L24.2154 20.1668H28.9999L28.9999 0.833496Z" fill="#0E0E0E"></path>
    <path d="M6.44449 0.833496L4.88219 0.833496L4.88219 20.1668H6.44449L6.44449 0.833496Z" fill="#0E0E0E"></path>
    <path d="M19.3333 0.833496L17.771 0.833496L17.771 20.1668H19.3333L19.3333 0.833496Z" fill="#0E0E0E"></path>
    <path d="M22.5555 0.833496L20.9932 0.833496L20.9932 20.1668H22.5555L22.5555 0.833496Z" fill="#0E0E0E"></path>
  </symbol>
  <symbol xmlns="http://www.w3.org/2000/svg" viewBox="0 0 137 71" id="logo">
    <path d="M42.4197 53.0485C41.1433 49.3929 38.5166 47.5647 34.5396 47.5639H33.2848V70.1132H34.5396C37.6135 70.1132 39.8823 68.8649 41.3461 66.3682C42.5793 64.2372 43.1959 61.5256 43.1959 58.2334C43.1929 56.2751 42.9342 54.5468 42.4197 53.0485Z" fill="white"></path>
    <path d="M20.8838 53.3189C22.1617 56.9745 24.788 58.8023 28.7629 58.8023H30.0177V36.2531H28.7629C25.689 36.2531 23.4201 37.5014 21.9564 39.9981C20.7268 42.1283 20.1117 44.8399 20.111 48.1328C20.111 50.0889 20.3686 51.8175 20.8838 53.3189Z" fill="white"></path>
    <path d="M0 0.240417H16.6978V6.21254H5.99408V9.1986H14.8864V14.8653H5.99408V17.8853H16.6978V23.8574H0V0.240417Z" fill="white"></path>
    <path d="M25.0951 0.212097H46.7001L35.8976 24.3381L25.0951 0.212097ZM35.8976 21.3521L44.8228 1.4676H27.0053L35.8976 21.3521Z" fill="white"></path>
    <path d="M55.3289 0.240417H72.0267V6.21254H61.323V9.1986H70.2153V14.8653H61.323V17.8853H72.0267V23.8574H55.3289V0.240417Z" fill="white"></path>
    <path d="M82.3023 23.8235V0.212097H83.5867L99.5929 16.2622V0.212097H100.811V23.8291L82.3023 23.8235Z" fill="white"></path>
    <path d="M118.3 23.8574V6.21254H109.638V0.240417H128.147V6.21254H119.485V23.8574H118.3Z" fill="white"></path>
    <path d="M9.8463 40.9595C11.2954 40.9595 12.4481 41.1857 13.3044 41.6381C14.2883 42.1326 15.1146 42.9062 15.6864 43.868C16.2581 44.8297 16.5515 45.9397 16.532 47.0673C16.538 48.1543 16.2408 49.2202 15.6757 50.1382C15.1015 51.0797 14.2944 51.8468 13.3374 52.3608C14.5257 52.7926 15.5669 53.5706 16.3344 54.6003C17.131 55.6186 17.5615 56.8893 17.553 58.1972C17.5614 59.3401 17.2591 60.4627 16.6802 61.4377C16.1141 62.4061 15.3141 63.2069 14.3583 63.7621C13.8509 64.0428 13.3077 64.2485 12.7445 64.3729C12.1517 64.5086 11.3613 64.5765 10.3733 64.5765H0.229431V40.9595H9.8463Z" fill="white"></path>
    <path d="M48.4621 62.8629C46.7385 61.3134 45.8877 58.989 45.9097 55.8898H51.278C51.2561 57.1792 51.6293 58.1633 52.3978 58.8419C53.1662 59.5206 54.2421 59.8599 55.6254 59.8599C56.7671 59.8599 57.6673 59.6676 58.326 59.2831C58.9847 58.8985 59.314 58.3103 59.314 57.5186C59.314 56.8625 58.9792 56.3875 58.3095 56.0934C57.67 55.8088 57.0017 55.5982 56.317 55.4657C55.6583 55.3412 55.2521 55.2658 55.0984 55.2394C53.6063 54.9551 52.1408 54.5388 50.7181 53.9952C49.5237 53.5377 48.4594 52.7794 47.6223 51.7896C46.7879 50.7943 46.3708 49.4822 46.3708 47.8534C46.3708 46.2247 46.7879 44.8391 47.6223 43.6967C48.4566 42.5543 49.5709 41.7004 50.9651 41.1348C52.42 40.5578 53.9677 40.27 55.5266 40.2865C57.5246 40.2865 59.2536 40.6711 60.7137 41.4402C62.1738 42.2093 63.321 43.3744 64.1554 44.9353C64.5426 45.5954 64.7999 46.3275 64.9129 47.09C64.9994 47.7593 65.0434 48.4337 65.0446 49.109H59.6763C59.6763 47.8874 59.3579 46.9882 58.7212 46.4113C58.0845 45.8345 57.0964 45.546 55.7571 45.546C54.6812 45.546 53.8469 45.7383 53.2541 46.1229C52.6613 46.5075 52.3648 47.0278 52.3648 47.6838C52.3648 48.4077 52.7601 48.9393 53.5505 49.2786C54.5215 49.674 55.5244 49.9805 56.5475 50.1948C58.5236 50.602 60.066 50.9922 61.1748 51.3655C62.2926 51.7451 63.2889 52.4314 64.0566 53.3505C64.869 54.3006 65.2752 55.6353 65.2752 57.3546C65.2752 58.9833 64.836 60.3859 63.9578 61.5622C63.0795 62.7385 61.9213 63.6377 60.4832 64.2598C59.0063 64.8898 57.4214 65.2071 55.823 65.193C52.6393 65.1892 50.1857 64.4125 48.4621 62.8629Z" fill="white"></path>
    <path d="M78.7783 64.5765V46.9316H70.1165V40.9595H88.6257V46.9316H79.964V64.5765H78.7783Z" fill="white"></path>
    <path d="M94.8503 40.9595H111.548V46.9316H100.844V49.9176H109.737V55.5844H100.844V58.6044H111.548V64.5765H94.8503V40.9595Z" fill="white"></path>
    <path d="M136.281 64.5765H118.661V40.9595H127.586C129.496 40.9595 131.055 41.3101 132.263 42.0114C133.417 42.658 134.374 43.621 135.029 44.7938C135.691 45.9805 136.032 47.3278 136.017 48.6961C136.033 50.414 135.475 52.0853 134.436 53.4297C133.441 54.7801 132.04 55.7526 130.451 56.1952L136.281 64.5765ZM119.879 43.0294V55.2111H128.344L119.879 43.0294ZM119.879 63.321H133.975L129.167 56.4327L128.146 56.4666H119.879V63.321ZM120.736 42.215L129.694 55.1093C131.132 54.813 132.425 54.009 133.35 52.8358C134.3 51.6806 134.815 50.2107 134.799 48.6961C134.812 47.5021 134.504 46.3277 133.91 45.3028C133.317 44.2853 132.447 43.4708 131.407 42.9615C130.44 42.4638 129.178 42.215 127.619 42.215H120.736Z" fill="white"></path>
  </symbol>
  <symbol fill="none" xmlns="http://www.w3.org/2000/svg" viewBox="0 0 25 25" id="close">
    <path d="M1.28557 25C0.95625 25 0.626931 24.8747 0.376724 24.6227C-0.125574 24.1204 -0.125574 23.306 0.376724 22.8038L22.8043 0.376714C23.3066 -0.125571 24.121 -0.125571 24.6233 0.376714C25.1256 0.878999 25.1256 1.69333 24.6233 2.19593L2.19598 24.6227C1.94389 24.8732 1.61457 25 1.28557 25Z" fill="#4C00FE"></path>
    <path d="M23.7147 25C23.3854 25 23.0564 24.8747 22.8059 24.6227L0.376724 2.19593C-0.125574 1.69333 -0.125574 0.878999 0.376724 0.376714C0.879022 -0.125571 1.69337 -0.125571 2.19598 0.376714L24.6233 22.8038C25.1256 23.306 25.1256 24.1204 24.6233 24.6227C24.3712 24.8732 24.0422 25 23.7147 25Z" fill="#4C00FE"></path>
  </symbol>
  <symbol version="1.1" id="github" xmlns="http://www.w3.org/2000/svg" xmlns:xlink="http://www.w3.org/1999/xlink" x="0px" y="0px" xml:space="preserve" viewBox="0 0 512 499.4">
    <path d="M256,0C114.6,0,0,114.6,0,256c0,113.1,73.3,209,175.1,242.9c12.8,2.3,17.5-5.6,17.5-12.3
	c0-6.1-0.2-22.2-0.3-43.5C121,458.5,106,408.7,106,408.7c-11.6-29.6-28.4-37.4-28.4-37.4c-23.2-15.9,1.8-15.6,1.8-15.6
	c25.7,1.8,39.2,26.4,39.2,26.4c22.8,39.1,59.9,27.8,74.5,21.3c2.3-16.5,8.9-27.8,16.3-34.2c-56.8-6.5-116.6-28.4-116.6-126.5
	c0-27.9,10-50.8,26.4-68.7c-2.6-6.5-11.4-32.5,2.5-67.7c0,0,21.5-6.9,70.4,26.2c20.4-5.7,42.3-8.5,64.1-8.6
	c21.7,0.1,43.6,2.9,64.1,8.6c48.9-33.1,70.3-26.2,70.3-26.2c14,35.2,5.2,61.3,2.5,67.7c16.4,17.9,26.3,40.7,26.3,68.7
	c0,98.3-59.9,120-116.9,126.3c9.2,7.9,17.4,23.5,17.4,47.4c0,34.2-0.3,61.8-0.3,70.2c0,6.8,4.6,14.8,17.6,12.3
	C438.7,465,512,369.1,512,256C512,114.6,397.4,0,256,0z"></path>
  </symbol>
</svg>